<?xml version="1.0" encoding="UTF-8" standalone="no"?>
<svg width="1400" height="900" xmlns="http://www.w3.org/2000/svg">
  <defs>
    <style type="text/css">
      .title { font-family: Arial, sans-serif; font-size: 24px; font-weight: bold; fill: #1a1a1a; }
      .subtitle { font-family: Arial, sans-serif; font-size: 14px; fill: #666; }
      .box { stroke-width: 2; rx: 8; }
      .label { font-family: Arial, sans-serif; font-size: 13px; font-weight: bold; }
      .sublabel { font-family: Arial, sans-serif; font-size: 11px; fill: #555; }
      .feature { font-family: Arial, sans-serif; font-size: 10px; fill: #444; }
      .time { font-family: Arial, sans-serif; font-size: 12px; font-weight: bold; fill: #10b981; }
    </style>

    <marker id="arrow" markerWidth="10" markerHeight="10" refX="9" refY="3" orient="auto">
      <path d="M0,0 L0,6 L9,3 z" fill="#10b981" />
    </marker>
  </defs>

  <!-- Title -->
  <text x="700" y="35" class="title" text-anchor="middle">Translation Studio Workflow</text>
  <text x="700" y="55" class="subtitle" text-anchor="middle">Transform Any Protocol to REST APIs + SDKs in Minutes</text>

  <!-- Input -->
  <rect x="550" y="90" width="300" height="70" class="box" fill="#f5f5f5" stroke="#757575"/>
  <text x="700" y="115" class="label" text-anchor="middle">Protocol Input Source</text>
  <text x="700" y="140" class="sublabel" text-anchor="middle">Marketplace (1,000+) • AI Discovery (2-4 hrs)</text>

  <line x1="700" y1="160" x2="700" y2="200" stroke="#10b981" stroke-width="2" marker-end="url(#arrow)"/>
  <text x="720" y="185" class="time">Start</text>

  <!-- Step 1: API Generation -->
  <rect x="80" y="200" width="1240" height="140" class="box" fill="#dbeafe" stroke="#3b82f6" stroke-width="2"/>
  <text x="700" y="225" class="label" text-anchor="middle" style="font-size: 15px; fill: #2563eb;">Step 1: Automatic API Generation</text>
  <text x="700" y="245" class="time" text-anchor="middle">⏱ 5-10 minutes</text>

  <rect x="100" y="260" width="360" height="65" fill="#eff6ff" stroke="#3b82f6"/>
  <text x="280" y="280" class="label" text-anchor="middle" style="fill: #2563eb;">OpenAPI 3.0 Spec</text>
  <text x="115" y="298" class="feature">• Paths (/api/v1/transactions)</text>
  <text x="115" y="313" class="feature">• Request/Response Schemas</text>

  <rect x="480" y="260" width="360" height="65" fill="#eff6ff" stroke="#3b82f6"/>
  <text x="660" y="280" class="label" text-anchor="middle" style="fill: #2563eb;">API Gateway</text>
  <text x="495" y="298" class="feature">• nginx/Envoy configuration</text>
  <text x="495" y="313" class="feature">• Rate limiting (1000 req/min)</text>

  <rect x="860" y="260" width="440" height="65" fill="#eff6ff" stroke="#3b82f6"/>
  <text x="1080" y="280" class="label" text-anchor="middle" style="fill: #2563eb;">Automated Testing</text>
  <text x="875" y="298" class="feature">• Contract testing • Integration tests • Performance</text>

  <line x1="700" y1="340" x2="700" y2="380" stroke="#10b981" stroke-width="2" marker-end="url(#arrow)"/>
  <text x="720" y="365" class="time">+10 min</text>

  <!-- Step 2: SDK Generation -->
  <rect x="80" y="380" width="1240" height="160" class="box" fill="#f3e8ff" stroke="#8b5cf6" stroke-width="2"/>
  <text x="700" y="405" class="label" text-anchor="middle" style="font-size: 15px; fill: #7c3aed;">Step 2: Multi-Language SDK Generation</text>
  <text x="700" y="425" class="time" text-anchor="middle">⏱ 2-3 minutes per language (parallel)</text>

  <rect x="100" y="440" width="180" height="85" fill="#faf5ff" stroke="#8b5cf6"/>
  <text x="190" y="460" class="label" text-anchor="middle" style="fill: #7c3aed; font-size: 12px;">Python</text>
  <text x="110" y="478" class="feature">• Type hints</text>
  <text x="110" y="493" class="feature">• Async support</text>
  <text x="110" y="508" class="feature">• pytest tests</text>

  <rect x="300" y="440" width="180" height="85" fill="#faf5ff" stroke="#8b5cf6"/>
  <text x="390" y="460" class="label" text-anchor="middle" style="fill: #7c3aed; font-size: 12px;">TypeScript</text>
  <text x="310" y="478" class="feature">• Full type safety</text>
  <text x="310" y="493" class="feature">• Promise/async</text>
  <text x="310" y="508" class="feature">• Jest tests</text>

  <rect x="500" y="440" width="180" height="85" fill="#faf5ff" stroke="#8b5cf6"/>
  <text x="590" y="460" class="label" text-anchor="middle" style="fill: #7c3aed; font-size: 12px;">JavaScript</text>
  <text x="510" y="478" class="feature">• ES6+ syntax</text>
  <text x="510" y="493" class="feature">• Async/await</text>
  <text x="510" y="508" class="feature">• Mocha tests</text>

  <rect x="700" y="440" width="180" height="85" fill="#faf5ff" stroke="#8b5cf6"/>
  <text x="790" y="460" class="label" text-anchor="middle" style="fill: #7c3aed; font-size: 12px;">Go</text>
  <text x="710" y="478" class="feature">• Idiomatic Go</text>
  <text x="710" y="493" class="feature">• Context support</text>
  <text x="710" y="508" class="feature">• go test</text>

  <rect x="900" y="440" width="180" height="85" fill="#faf5ff" stroke="#8b5cf6"/>
  <text x="990" y="460" class="label" text-anchor="middle" style="fill: #7c3aed; font-size: 12px;">Java</text>
  <text x="910" y="478" class="feature">• Java 11+</text>
  <text x="910" y="493" class="feature">• CompletableFuture</text>
  <text x="910" y="508" class="feature">• JUnit tests</text>

  <rect x="1100" y="440" width="200" height="85" fill="#faf5ff" stroke="#8b5cf6"/>
  <text x="1200" y="460" class="label" text-anchor="middle" style="fill: #7c3aed; font-size: 12px;">C#</text>
  <text x="1110" y="478" class="feature">• .NET 6+</text>
  <text x="1110" y="493" class="feature">• async/await</text>
  <text x="1110" y="508" class="feature">• xUnit tests</text>

  <line x1="700" y1="540" x2="700" y2="580" stroke="#10b981" stroke-width="2" marker-end="url(#arrow)"/>
  <text x="720" y="565" class="time">+15 min</text>

  <!-- Step 3: Protocol Bridge -->
  <rect x="200" y="580" width="1000" height="100" class="box" fill="#fce7f3" stroke="#ec4899" stroke-width="2"/>
  <text x="700" y="605" class="label" text-anchor="middle" style="font-size: 15px; fill: #db2777;">Step 3: Protocol Bridge (Real-Time Translation)</text>
  <text x="700" y="625" class="time" text-anchor="middle">⏱ &lt;10ms latency | 10,000+ req/sec</text>
  <text x="220" y="650" class="feature">• Bidirectional Translation: Legacy Protocol ↔ JSON/REST (No code changes)</text>
  <text x="220" y="665" class="feature">• Field Mapping: ISO-8583 PAN → card_number • Amount → amount (auto-generated)</text>

  <line x1="700" y1="680" x2="700" y2="720" stroke="#10b981" stroke-width="2" marker-end="url(#arrow)"/>
  <text x="720" y="705" class="time">+20 min</text>

  <!-- Output -->
  <rect x="150" y="720" width="1100" height="100" class="box" fill="#ecfdf5" stroke="#10b981" stroke-width="2"/>
  <text x="700" y="745" class="label" text-anchor="middle" style="font-size: 15px; fill: #059669;">Complete Translation Studio Output</text>
  <text x="170" y="765" class="feature">✓ OpenAPI 3.0 Spec</text>
  <text x="170" y="780" class="feature">✓ REST API Gateway</text>
  <text x="170" y="795" class="feature">✓ 6 Language SDKs</text>
  <text x="170" y="810" class="feature">✓ Protocol Bridge</text>

  <text x="500" y="765" class="feature">✓ Complete Documentation</text>
  <text x="500" y="780" class="feature">✓ Integration Tests</text>
  <text x="500" y="795" class="feature">✓ Monitoring Dashboards</text>
  <text x="500" y="810" class="feature">✓ CI/CD Pipeline</text>

  <text x="850" y="765" class="feature">✓ OAuth2/JWT Auth</text>
  <text x="850" y="780" class="feature">✓ Rate Limiting</text>
  <text x="850" y="795" class="feature">✓ Error Handling</text>
  <text x="850" y="810" class="feature">✓ Comprehensive Logging</text>

  <!-- Comparison -->
  <rect x="80" y="840" width="600" height="50" fill="#fef2f2" stroke="#dc2626"/>
  <text x="380" y="860" class="label" text-anchor="middle" style="fill: #dc2626;">Traditional Manual</text>
  <text x="380" y="880" class="sublabel" text-anchor="middle">⏱ 6-12 months • 💰 $500K-$2M • Manual coding • High maintenance</text>

  <rect x="710" y="840" width="610" height="50" fill="#ecfdf5" stroke="#10b981"/>
  <text x="1015" y="860" class="label" text-anchor="middle" style="fill: #059669;">QBITEL AI Translation Studio</text>
  <text x="1015" y="880" class="sublabel" text-anchor="middle" style="font-weight: bold;">⏱ 20-30 minutes • 💰 $100K • Fully automated • Zero maintenance</text>
</svg>
